# xmcd
#
# Track frame offsets: 
#        150
#        15344
#        26772
#        37925
#        52889
#        66658
#        80536
#        91739
#        106057
#        119923
#        138935
#
# Disc length: 2036 seconds
#
# Revision: 1
# Processed by: cddbd v1.5.2PL0 Copyright (c) Steve Scherf et al.
# Submitted via: ExactAudioCopyFreeDBPlugin 1.0
#
DISCID=8807f20b
DTITLE=Patty Loveless - Icon
DYEAR=2011
DGENRE=Country
TTITLE0=Jealous Bone
TTITLE1=Timber, I'm Falling In Love
TTITLE2=A Little Bit In Love
TTITLE3=Blue Side Of Town
TTITLE4=Hurt Me Bad (In A Real Good Way)
TTITLE5=If My Heart Had Windows
TTITLE6=Chains
TTITLE7=On Down The Line
TTITLE8=The Lonely Side Of Love
TTITLE9=Don't Toss Us Away
TTITLE10=I'm That Kind Of Girl
EXTD=YEAR: 2011
EXTT0=
EXTT1=
EXTT2=
EXTT3=
EXTT4=
EXTT5=
EXTT6=
EXTT7=
EXTT8=
EXTT9=
EXTT10=
PLAYORDER=
